<svg width="48" height="48" viewBox="0 0 190 198" fill="none" xmlns="http://www.w3.org/2000/svg">
<g filter="url(#filter0_d_1_8)">
<path d="M96 4.04145L173.272 48.6547C173.891 49.012 174.272 49.6722 174.272 50.3867V139.613C174.272 140.328 173.891 140.988 173.272 141.345L96 185.959C95.3812 186.316 94.6188 186.316 94 185.959L16.7276 141.345C16.1088 140.988 15.7276 140.328 15.7276 139.613V50.3867C15.7276 49.6722 16.1088 49.012 16.7276 48.6547L94 4.04145C94.6188 3.68419 95.3812 3.68418 96 4.04145Z" stroke="#64FFDA" stroke-width="6"/>
<path d="M116.867 93.6797V114.5C116.164 115.542 115.044 116.714 113.508 118.016C111.971 119.292 109.849 120.411 107.141 121.375C104.458 122.312 100.995 122.781 96.75 122.781C93.2865 122.781 90.0964 122.182 87.1797 120.984C84.2891 119.76 81.776 117.99 79.6406 115.672C77.5312 113.328 75.8906 110.49 74.7188 107.156C73.5729 103.797 73 99.9948 73 95.75V91.3359C73 87.0911 73.4948 83.3021 74.4844 79.9688C75.5 76.6354 76.9844 73.8099 78.9375 71.4922C80.8906 69.1484 83.2865 67.3776 86.125 66.1797C88.9635 64.9557 92.2188 64.3438 95.8906 64.3438C100.24 64.3438 103.872 65.099 106.789 66.6094C109.732 68.0938 112.023 70.151 113.664 72.7812C115.331 75.4115 116.398 78.4062 116.867 81.7656H109.328C108.99 79.7083 108.312 77.8333 107.297 76.1406C106.307 74.4479 104.888 73.0938 103.039 72.0781C101.19 71.0365 98.8073 70.5156 95.8906 70.5156C93.2604 70.5156 90.9818 70.9974 89.0547 71.9609C87.1276 72.9245 85.5391 74.3047 84.2891 76.1016C83.0391 77.8984 82.1016 80.0729 81.4766 82.625C80.8776 85.1771 80.5781 88.0547 80.5781 91.2578V95.75C80.5781 99.0312 80.9557 101.961 81.7109 104.539C82.4922 107.117 83.599 109.318 85.0312 111.141C86.4635 112.938 88.1693 114.305 90.1484 115.242C92.1536 116.18 94.3672 116.648 96.7891 116.648C99.4714 116.648 101.646 116.427 103.312 115.984C104.979 115.516 106.281 114.969 107.219 114.344C108.156 113.693 108.872 113.081 109.367 112.508V99.7734H96.2031V93.6797H116.867Z" fill="#64FFDA"/>
</g>
<defs>
<filter id="filter0_d_1_8" x="-4" y="0" width="198" height="198" filterUnits="userSpaceOnUse" color-interpolation-filters="sRGB">
<feFlood flood-opacity="0" result="BackgroundImageFix"/>
<feColorMatrix in="SourceAlpha" type="matrix" values="0 0 0 0 0 0 0 0 0 0 0 0 0 0 0 0 0 0 127 0" result="hardAlpha"/>
<feOffset dy="4"/>
<feGaussianBlur stdDeviation="2"/>
<feComposite in2="hardAlpha" operator="out"/>
<feColorMatrix type="matrix" values="0 0 0 0 0 0 0 0 0 0 0 0 0 0 0 0 0 0 0.25 0"/>
<feBlend mode="normal" in2="BackgroundImageFix" result="effect1_dropShadow_1_8"/>
<feBlend mode="normal" in="SourceGraphic" in2="effect1_dropShadow_1_8" result="shape"/>
</filter>
</defs>
</svg>
